<svg width="40" height="40" viewBox="0 0 40 40" fill="none" xmlns="http://www.w3.org/2000/svg">
<g clip-path="url(#clip0_1607_129)">
<path d="M22.0547 12.0547L22.0391 12.0312L23.0547 11.4531C24.2344 10.5391 24.9922 9.10938 24.9922 7.5C24.9922 4.74219 22.75 2.5 19.9922 2.5C17.2344 2.5 14.9922 4.74219 14.9922 7.5C14.9922 9.10938 15.75 10.5391 16.9297 11.4531L17.9453 12.0312L17.9297 12.0547C18.5547 12.3359 19.2578 12.5 19.9844 12.5C20.7109 12.5 21.4141 12.3438 22.0391 12.0547H22.0547ZM23.2969 14.2344C22.2969 14.7266 21.1797 15 19.9922 15C18.8047 15 17.6875 14.7266 16.6875 14.2344L11.1094 24.0156C13.7578 25.4375 16.7812 26.25 20 26.25C26.9375 26.25 33 22.4844 36.2422 16.875L38.4062 18.125C34.7344 24.4766 27.8672 28.75 20 28.75C16.3281 28.75 12.8828 27.8203 9.86719 26.1875L2.33594 39.3672L0.164062 38.1328L7.74219 24.8672C5.23438 23.0937 3.13281 20.7969 1.59375 18.1328L3.75781 16.8828C5.07812 19.1641 6.86719 21.1484 8.99219 22.6875L14.6562 12.7734C13.3203 11.4141 12.5 9.55469 12.5 7.5C12.5 3.35938 15.8594 0 20 0C24.1406 0 27.5 3.35938 27.5 7.5C27.5 9.55469 26.6797 11.4141 25.3437 12.7656L29.7578 20.4922C29.0937 20.9922 28.3906 21.4453 27.6484 21.8359L23.3047 14.2266L23.2969 14.2344ZM37.6641 39.3672L31.3672 28.3594C32.1016 27.9609 32.8125 27.5234 33.4922 27.0469L39.8281 38.1328L37.6562 39.375L37.6641 39.3672Z" fill="currentColor"/>
</g>
<defs>
<clipPath id="clip0_1607_129">
<rect width="40" height="40" fill="currentColor"/>
</clipPath>
</defs>
</svg>
