<svg width="40" height="40" viewBox="0 0 40 40" fill="none" xmlns="http://www.w3.org/2000/svg">
<g clip-path="url(#clip0_1607_133)">
<path d="M20 7.5C20.663 7.5 21.2989 7.23661 21.7678 6.76777C22.2366 6.29893 22.5 5.66304 22.5 5C22.5 4.33696 22.2366 3.70107 21.7678 3.23223C21.2989 2.76339 20.663 2.5 20 2.5C19.337 2.5 18.7011 2.76339 18.2322 3.23223C17.7634 3.70107 17.5 4.33696 17.5 5C17.5 5.66304 17.7634 6.29893 18.2322 6.76777C18.7011 7.23661 19.337 7.5 20 7.5ZM24.5703 7.03125C23.7891 8.78125 22.0391 10 20 10C17.9609 10 16.2031 8.78125 15.4297 7.03125C11.5156 8.40625 8.40625 11.5156 7.03125 15.4297C8.78125 16.2109 10 17.9609 10 20C10 22.0391 8.78125 23.7969 7.03125 24.5703C8.41406 28.4844 11.5156 31.5937 15.4297 32.9688C16.2109 31.2188 17.9609 30 20 30C22.0391 30 23.7969 31.2188 24.5703 32.9688C28.4844 31.5859 31.5937 28.4844 32.9688 24.5703C31.2188 23.7891 30 22.0391 30 20C30 17.9609 31.2188 16.2031 32.9688 15.4297C31.5937 11.5156 28.4844 8.40625 24.5703 7.03125ZM35.4766 15.0234C38.0156 15.2656 40 17.3984 40 20C40 22.6016 38.0156 24.7422 35.4766 24.9766C33.875 29.9453 29.9531 33.875 24.9844 35.4688C24.7422 38.0156 22.6016 40 20 40C17.3984 40 15.2578 38.0156 15.0234 35.4766C10.0547 33.875 6.125 29.9453 4.52344 24.9766C1.98438 24.7422 0 22.6016 0 20C0 17.3984 1.98438 15.2578 4.52344 15.0234C6.125 10.0547 10.0547 6.125 15.0234 4.52344C15.2578 1.98438 17.3984 0 20 0C22.6016 0 24.7422 1.98438 24.9766 4.52344C29.9453 6.125 33.875 10.0469 35.4688 15.0156L35.4766 15.0234ZM20 37.5C20.663 37.5 21.2989 37.2366 21.7678 36.7678C22.2366 36.2989 22.5 35.663 22.5 35C22.5 34.337 22.2366 33.7011 21.7678 33.2322C21.2989 32.7634 20.663 32.5 20 32.5C19.337 32.5 18.7011 32.7634 18.2322 33.2322C17.7634 33.7011 17.5 34.337 17.5 35C17.5 35.663 17.7634 36.2989 18.2322 36.7678C18.7011 37.2366 19.337 37.5 20 37.5ZM7.5 20C7.5 19.337 7.23661 18.7011 6.76777 18.2322C6.29893 17.7634 5.66304 17.5 5 17.5C4.33696 17.5 3.70107 17.7634 3.23223 18.2322C2.76339 18.7011 2.5 19.337 2.5 20C2.5 20.663 2.76339 21.2989 3.23223 21.7678C3.70107 22.2366 4.33696 22.5 5 22.5C5.66304 22.5 6.29893 22.2366 6.76777 21.7678C7.23661 21.2989 7.5 20.663 7.5 20ZM35 22.5C35.663 22.5 36.2989 22.2366 36.7678 21.7678C37.2366 21.2989 37.5 20.663 37.5 20C37.5 19.337 37.2366 18.7011 36.7678 18.2322C36.2989 17.7634 35.663 17.5 35 17.5C34.337 17.5 33.7011 17.7634 33.2322 18.2322C32.7634 18.7011 32.5 19.337 32.5 20C32.5 20.663 32.7634 21.2989 33.2322 21.7678C33.7011 22.2366 34.337 22.5 35 22.5Z" fill="currentColor"/>
</g>
<defs>
<clipPath id="clip0_1607_133">
<rect width="40" height="40" fill="currentColor"/>
</clipPath>
</defs>
</svg>
