<svg width="40" height="40" viewBox="0 0 40 40" fill="none" xmlns="http://www.w3.org/2000/svg">
<g clip-path="url(#clip0_1607_125)">
<path d="M37.5 2.5C37.5 9.94531 32.0781 16.125 24.9609 17.2969C25.1719 18.0937 25.3281 18.9141 25.4375 19.75C33.7031 18.3516 40 11.1641 40 2.5V0H37.5H35C28.6719 0 23.125 3.35938 20.0469 8.39844C20.6563 9.04688 21.2266 9.74219 21.75 10.4609C24.2734 5.72656 29.2578 2.5 35 2.5H37.5ZM5 7.5C13.2812 7.5 20 14.2188 20 22.5H17.5C9.21875 22.5 2.5 15.7812 2.5 7.5H5ZM17.5 25H20V38.75V40H22.5V38.75V25V23.75V22.5C22.5 12.8359 14.6641 5 5 5H2.5H0V7.5C0 17.1641 7.83594 25 17.5 25Z" fill="currentColor"/>
</g>
<defs>
<clipPath id="clip0_1607_125">
<rect width="40" height="40" fill="currentColor"/>
</clipPath>
</defs>
</svg>
