<svg width="40" height="40" viewBox="0 0 40 40" fill="none" xmlns="http://www.w3.org/2000/svg">
<g clip-path="url(#clip0_1607_127)">
<path d="M13.9297 15L21.0625 2.51563L22.5 0L23.9375 2.51563L31.0703 15L32.5 17.5H29.6172H15.3828H12.5L13.9297 15ZM28.1953 15L22.5 5.03906L16.8047 15H28.1953ZM37.5 23.75H25V36.25H37.5V23.75ZM25 21.25H37.5H40V23.75V36.25V38.75H37.5H25H22.5V36.25V23.75V21.25H25ZM17.5 30C17.5 29.0151 17.306 28.0398 16.9291 27.1299C16.5522 26.2199 15.9997 25.3931 15.3033 24.6967C14.6069 24.0003 13.7801 23.4478 12.8701 23.0709C11.9602 22.694 10.9849 22.5 10 22.5C9.01509 22.5 8.03982 22.694 7.12987 23.0709C6.21993 23.4478 5.39314 24.0003 4.6967 24.6967C4.00026 25.3931 3.44781 26.2199 3.0709 27.1299C2.69399 28.0398 2.5 29.0151 2.5 30C2.5 30.9849 2.69399 31.9602 3.0709 32.8701C3.44781 33.7801 4.00026 34.6069 4.6967 35.3033C5.39314 35.9997 6.21993 36.5522 7.12987 36.9291C8.03982 37.306 9.01509 37.5 10 37.5C10.9849 37.5 11.9602 37.306 12.8701 36.9291C13.7801 36.5522 14.6069 35.9997 15.3033 35.3033C15.9997 34.6069 16.5522 33.7801 16.9291 32.8701C17.306 31.9602 17.5 30.9849 17.5 30ZM0 30C0 27.3478 1.05357 24.8043 2.92893 22.9289C4.8043 21.0536 7.34784 20 10 20C12.6522 20 15.1957 21.0536 17.0711 22.9289C18.9464 24.8043 20 27.3478 20 30C20 32.6522 18.9464 35.1957 17.0711 37.0711C15.1957 38.9464 12.6522 40 10 40C7.34784 40 4.8043 38.9464 2.92893 37.0711C1.05357 35.1957 0 32.6522 0 30Z" fill="currentColor"/>
</g>
<defs>
<clipPath id="clip0_1607_127">
<rect width="40" height="40" fill="currentColor"/>
</clipPath>
</defs>
</svg>
