<svg width="50" height="40" viewBox="0 0 50 40" fill="none" xmlns="http://www.w3.org/2000/svg">
<g clip-path="url(#clip0_1607_131)">
<path d="M7.5 6.25C7.5 5.25544 7.89509 4.30161 8.59835 3.59835C9.30161 2.89509 10.2554 2.5 11.25 2.5C12.2446 2.5 13.1984 2.89509 13.9017 3.59835C14.6049 4.30161 15 5.25544 15 6.25C15 7.24456 14.6049 8.19839 13.9017 8.90165C13.1984 9.60491 12.2446 10 11.25 10C10.2554 10 9.30161 9.60491 8.59835 8.90165C7.89509 8.19839 7.5 7.24456 7.5 6.25ZM17.5 6.25C17.5 4.5924 16.8415 3.00269 15.6694 1.83058C14.4973 0.65848 12.9076 0 11.25 0C9.5924 0 8.00269 0.65848 6.83058 1.83058C5.65848 3.00269 5 4.5924 5 6.25C5 7.9076 5.65848 9.49731 6.83058 10.6694C8.00269 11.8415 9.5924 12.5 11.25 12.5C12.9076 12.5 14.4973 11.8415 15.6694 10.6694C16.8415 9.49731 17.5 7.9076 17.5 6.25ZM25 12.5C26.3261 12.5 27.5979 13.0268 28.5355 13.9645C29.4732 14.9021 30 16.1739 30 17.5C30 18.8261 29.4732 20.0979 28.5355 21.0355C27.5979 21.9732 26.3261 22.5 25 22.5C23.6739 22.5 22.4021 21.9732 21.4645 21.0355C20.5268 20.0979 20 18.8261 20 17.5C20 16.1739 20.5268 14.9021 21.4645 13.9645C22.4021 13.0268 23.6739 12.5 25 12.5ZM25 25C25.9849 25 26.9602 24.806 27.8701 24.4291C28.7801 24.0522 29.6069 23.4997 30.3033 22.8033C30.9997 22.1069 31.5522 21.2801 31.9291 20.3701C32.306 19.4602 32.5 18.4849 32.5 17.5C32.5 16.5151 32.306 15.5398 31.9291 14.6299C31.5522 13.7199 30.9997 12.8931 30.3033 12.1967C29.6069 11.5003 28.7801 10.9478 27.8701 10.5709C26.9602 10.194 25.9849 10 25 10C24.0151 10 23.0398 10.194 22.1299 10.5709C21.2199 10.9478 20.3931 11.5003 19.6967 12.1967C19.0003 12.8931 18.4478 13.7199 18.0709 14.6299C17.694 15.5398 17.5 16.5151 17.5 17.5C17.5 18.4849 17.694 19.4602 18.0709 20.3701C18.4478 21.2801 19.0003 22.1069 19.6967 22.8033C20.3931 23.4997 21.2199 24.0522 22.1299 24.4291C23.0398 24.806 24.0151 25 25 25ZM15.6094 30H34.3906L36.6406 37.5H13.3594L15.6094 30ZM36.25 27.5H13.75L10.75 37.5L10 40H12.6094H37.3906H40L39.25 37.5L36.25 27.5ZM35 17.5H44.5156L47.3281 25H50L46.25 15H34.6875C34.8906 15.7969 35 16.6406 35 17.5ZM15.3125 15H3.75L0 25H2.67188L5.48437 17.5H15C15 16.6406 15.1094 15.7969 15.3125 15ZM36.25 6.25C36.25 5.25544 36.6451 4.30161 37.3483 3.59835C38.0516 2.89509 39.0054 2.5 40 2.5C40.9946 2.5 41.9484 2.89509 42.6516 3.59835C43.3549 4.30161 43.75 5.25544 43.75 6.25C43.75 7.24456 43.3549 8.19839 42.6516 8.90165C41.9484 9.60491 40.9946 10 40 10C39.0054 10 38.0516 9.60491 37.3483 8.90165C36.6451 8.19839 36.25 7.24456 36.25 6.25ZM46.25 6.25C46.25 4.5924 45.5915 3.00269 44.4194 1.83058C43.2473 0.65848 41.6576 0 40 0C38.3424 0 36.7527 0.65848 35.5806 1.83058C34.4085 3.00269 33.75 4.5924 33.75 6.25C33.75 7.9076 34.4085 9.49731 35.5806 10.6694C36.7527 11.8415 38.3424 12.5 40 12.5C41.6576 12.5 43.2473 11.8415 44.4194 10.6694C45.5915 9.49731 46.25 7.9076 46.25 6.25Z" fill="currentColor"/>
</g>
<defs>
<clipPath id="clip0_1607_131">
<rect width="50" height="40" fill="currentColor"/>
</clipPath>
</defs>
</svg>
